<svg width="569" height="286" viewBox="0 0 569 286" fill="none" xmlns="http://www.w3.org/2000/svg">
    <g clip-path="url(#clip0_26_2)">
        <rect x="2.5" y="2.5" width="564" height="281" rx="27.5" fill="url(#paint0_linear_26_2)" stroke="black" stroke-width="5"/>
        <mask id="mask0_26_2" style="mask-type:alpha" maskUnits="userSpaceOnUse" x="5" y="5" width="559" height="276">
            <rect x="5" y="5" width="559" height="276" rx="25" fill="#D9D9D9"/>
        </mask>
        <g mask="url(#mask0_26_2)">
            <rect x="101" y="143" width="409" height="248" rx="34" fill="black"/>
            <path d="M134.904 212V179.22H141.724V212H134.904ZM166.267 212.528C163.92 212.528 161.823 211.971 159.975 210.856C158.127 209.741 156.66 208.231 155.575 206.324C154.519 204.417 153.991 202.305 153.991 199.988C153.991 197.641 154.534 195.529 155.619 193.652C156.704 191.745 158.171 190.235 160.019 189.12C161.867 188.005 163.935 187.448 166.223 187.448C167.983 187.448 169.538 187.785 170.887 188.46C172.266 189.105 173.351 190.029 174.143 191.232L173.131 192.552V178.692H179.731V212H173.571V207.6L174.187 208.964C173.366 210.137 172.251 211.032 170.843 211.648C169.435 212.235 167.91 212.528 166.267 212.528ZM167.059 206.588C168.262 206.588 169.318 206.309 170.227 205.752C171.136 205.195 171.84 204.417 172.339 203.42C172.867 202.423 173.131 201.279 173.131 199.988C173.131 198.697 172.867 197.553 172.339 196.556C171.84 195.559 171.136 194.781 170.227 194.224C169.318 193.667 168.262 193.388 167.059 193.388C165.856 193.388 164.771 193.681 163.803 194.268C162.864 194.825 162.131 195.603 161.603 196.6C161.075 197.568 160.811 198.697 160.811 199.988C160.811 201.279 161.075 202.423 161.603 203.42C162.131 204.417 162.864 205.195 163.803 205.752C164.771 206.309 165.856 206.588 167.059 206.588ZM184.565 212V187.976H190.725V193.74L190.285 192.904C190.813 190.88 191.678 189.516 192.881 188.812C194.113 188.079 195.565 187.712 197.237 187.712H198.645V193.432H196.577C194.963 193.432 193.658 193.931 192.661 194.928C191.663 195.896 191.165 197.275 191.165 199.064V212H184.565ZM201.537 212V187.976H208.137V212H201.537ZM201.537 185.82V179.22H208.137V185.82H201.537ZM212.967 212V187.976H219.127V192.728L218.775 191.672C219.332 190.235 220.227 189.179 221.459 188.504C222.72 187.8 224.187 187.448 225.859 187.448C227.678 187.448 229.262 187.829 230.611 188.592C231.99 189.355 233.06 190.425 233.823 191.804C234.586 193.153 234.967 194.737 234.967 196.556V212H228.367V197.964C228.367 197.025 228.176 196.219 227.795 195.544C227.443 194.869 226.93 194.341 226.255 193.96C225.61 193.579 224.847 193.388 223.967 193.388C223.116 193.388 222.354 193.579 221.679 193.96C221.004 194.341 220.476 194.869 220.095 195.544C219.743 196.219 219.567 197.025 219.567 197.964V212H212.967ZM239.307 212V178.692H245.907V200.032L243.443 199.24L254.047 187.976H262.187L253.475 197.656L262.143 212H254.663L247.403 199.812L251.231 198.844L243.883 206.852L245.907 203.024V212H239.307ZM284.566 212.264C281.662 212.264 279.404 211.487 277.79 209.932C276.206 208.348 275.414 206.148 275.414 203.332V193.696H271.366V187.976H271.586C272.818 187.976 273.757 187.668 274.402 187.052C275.077 186.436 275.414 185.512 275.414 184.28V182.52H282.014V187.976H287.646V193.696H282.014V202.892C282.014 203.713 282.161 204.403 282.454 204.96C282.748 205.488 283.202 205.884 283.818 206.148C284.434 206.412 285.197 206.544 286.106 206.544C286.312 206.544 286.546 206.529 286.81 206.5C287.074 206.471 287.353 206.441 287.646 206.412V212C287.206 212.059 286.708 212.117 286.15 212.176C285.593 212.235 285.065 212.264 284.566 212.264ZM303.438 212.528C301.062 212.528 298.891 211.985 296.926 210.9C294.99 209.815 293.435 208.333 292.262 206.456C291.118 204.549 290.546 202.393 290.546 199.988C290.546 197.553 291.118 195.397 292.262 193.52C293.435 191.643 294.99 190.161 296.926 189.076C298.891 187.991 301.062 187.448 303.438 187.448C305.814 187.448 307.97 187.991 309.906 189.076C311.842 190.161 313.382 191.643 314.526 193.52C315.699 195.397 316.286 197.553 316.286 199.988C316.286 202.393 315.699 204.549 314.526 206.456C313.382 208.333 311.842 209.815 309.906 210.9C307.97 211.985 305.814 212.528 303.438 212.528ZM303.438 206.588C304.64 206.588 305.682 206.309 306.562 205.752C307.471 205.195 308.175 204.417 308.674 203.42C309.202 202.423 309.466 201.279 309.466 199.988C309.466 198.697 309.202 197.568 308.674 196.6C308.175 195.603 307.471 194.825 306.562 194.268C305.682 193.681 304.64 193.388 303.438 193.388C302.235 193.388 301.179 193.681 300.27 194.268C299.36 194.825 298.642 195.603 298.114 196.6C297.615 197.568 297.366 198.697 297.366 199.988C297.366 201.279 297.615 202.423 298.114 203.42C298.642 204.417 299.36 205.195 300.27 205.752C301.179 206.309 302.235 206.588 303.438 206.588ZM330.984 212V193.696H326.936V187.976H330.984V187.624C330.984 185.717 331.351 184.104 332.084 182.784C332.847 181.464 333.932 180.452 335.34 179.748C336.748 179.044 338.449 178.692 340.444 178.692C340.825 178.692 341.236 178.721 341.676 178.78C342.116 178.809 342.483 178.853 342.776 178.912V184.544C342.483 184.485 342.219 184.456 341.984 184.456C341.779 184.427 341.559 184.412 341.324 184.412C340.092 184.412 339.153 184.691 338.508 185.248C337.892 185.776 337.584 186.568 337.584 187.624V187.976H342.732V193.696H337.584V212H330.984ZM357.578 212.528C355.202 212.528 353.032 211.985 351.066 210.9C349.13 209.815 347.576 208.333 346.402 206.456C345.258 204.549 344.686 202.393 344.686 199.988C344.686 197.553 345.258 195.397 346.402 193.52C347.576 191.643 349.13 190.161 351.066 189.076C353.032 187.991 355.202 187.448 357.578 187.448C359.954 187.448 362.11 187.991 364.046 189.076C365.982 190.161 367.522 191.643 368.666 193.52C369.84 195.397 370.426 197.553 370.426 199.988C370.426 202.393 369.84 204.549 368.666 206.456C367.522 208.333 365.982 209.815 364.046 210.9C362.11 211.985 359.954 212.528 357.578 212.528ZM357.578 206.588C358.781 206.588 359.822 206.309 360.702 205.752C361.612 205.195 362.316 204.417 362.814 203.42C363.342 202.423 363.606 201.279 363.606 199.988C363.606 198.697 363.342 197.568 362.814 196.6C362.316 195.603 361.612 194.825 360.702 194.268C359.822 193.681 358.781 193.388 357.578 193.388C356.376 193.388 355.32 193.681 354.41 194.268C353.501 194.825 352.782 195.603 352.254 196.6C351.756 197.568 351.506 198.697 351.506 199.988C351.506 201.279 351.756 202.423 352.254 203.42C352.782 204.417 353.501 205.195 354.41 205.752C355.32 206.309 356.376 206.588 357.578 206.588ZM374.315 212V187.976H380.475V193.74L380.035 192.904C380.563 190.88 381.428 189.516 382.631 188.812C383.863 188.079 385.315 187.712 386.987 187.712H388.395V193.432H386.327C384.713 193.432 383.408 193.931 382.411 194.928C381.413 195.896 380.915 197.275 380.915 199.064V212H374.315ZM403.079 221.68C401.231 221.68 399.515 221.372 397.931 220.756C396.347 220.14 394.983 219.275 393.839 218.16C392.725 217.075 391.918 215.784 391.419 214.288L397.535 212.132C397.858 213.247 398.518 214.127 399.515 214.772C400.513 215.417 401.701 215.74 403.079 215.74C404.165 215.74 405.103 215.535 405.895 215.124C406.687 214.743 407.289 214.171 407.699 213.408C408.139 212.645 408.359 211.751 408.359 210.724V205.224L409.635 206.808C408.814 208.157 407.758 209.169 406.467 209.844C405.177 210.489 403.666 210.812 401.935 210.812C399.706 210.812 397.711 210.313 395.951 209.316C394.191 208.289 392.813 206.896 391.815 205.136C390.818 203.347 390.319 201.323 390.319 199.064C390.319 196.805 390.818 194.811 391.815 193.08C392.813 191.32 394.177 189.941 395.907 188.944C397.638 187.947 399.603 187.448 401.803 187.448C403.534 187.448 405.045 187.8 406.335 188.504C407.626 189.179 408.726 190.22 409.635 191.628L408.799 193.212V187.976H414.959V210.724C414.959 212.836 414.446 214.713 413.419 216.356C412.393 218.028 410.985 219.333 409.195 220.272C407.435 221.211 405.397 221.68 403.079 221.68ZM402.859 204.828C403.974 204.828 404.942 204.593 405.763 204.124C406.585 203.655 407.215 202.995 407.655 202.144C408.125 201.293 408.359 200.296 408.359 199.152C408.359 198.008 408.125 197.011 407.655 196.16C407.186 195.28 406.541 194.605 405.719 194.136C404.898 193.637 403.945 193.388 402.859 193.388C401.745 193.388 400.747 193.637 399.867 194.136C399.017 194.605 398.342 195.28 397.843 196.16C397.374 197.011 397.139 198.008 397.139 199.152C397.139 200.267 397.374 201.249 397.843 202.1C398.342 202.951 399.017 203.625 399.867 204.124C400.747 204.593 401.745 204.828 402.859 204.828ZM431.39 212.528C428.838 212.528 426.624 211.971 424.746 210.856C422.869 209.712 421.417 208.187 420.39 206.28C419.364 204.373 418.85 202.261 418.85 199.944C418.85 197.539 419.378 195.397 420.434 193.52C421.52 191.643 422.972 190.161 424.79 189.076C426.609 187.991 428.662 187.448 430.95 187.448C432.857 187.448 434.544 187.756 436.01 188.372C437.477 188.959 438.709 189.795 439.706 190.88C440.733 191.965 441.51 193.227 442.038 194.664C442.566 196.072 442.83 197.612 442.83 199.284C442.83 199.753 442.801 200.223 442.742 200.692C442.713 201.132 442.64 201.513 442.522 201.836H424.526V196.996H438.782L435.658 199.284C435.952 198.023 435.937 196.908 435.614 195.94C435.292 194.943 434.72 194.165 433.898 193.608C433.106 193.021 432.124 192.728 430.95 192.728C429.806 192.728 428.824 193.007 428.002 193.564C427.181 194.121 426.565 194.943 426.154 196.028C425.744 197.113 425.582 198.433 425.67 199.988C425.553 201.337 425.714 202.525 426.154 203.552C426.594 204.579 427.269 205.385 428.178 205.972C429.088 206.529 430.188 206.808 431.478 206.808C432.652 206.808 433.649 206.573 434.47 206.104C435.321 205.635 435.981 204.989 436.45 204.168L441.73 206.676C441.261 207.849 440.513 208.876 439.486 209.756C438.489 210.636 437.301 211.325 435.922 211.824C434.544 212.293 433.033 212.528 431.39 212.528ZM458.289 212.264C455.385 212.264 453.126 211.487 451.513 209.932C449.929 208.348 449.137 206.148 449.137 203.332V193.696H445.089V187.976H445.309C446.541 187.976 447.48 187.668 448.125 187.052C448.8 186.436 449.137 185.512 449.137 184.28V182.52H455.737V187.976H461.369V193.696H455.737V202.892C455.737 203.713 455.884 204.403 456.177 204.96C456.47 205.488 456.925 205.884 457.541 206.148C458.157 206.412 458.92 206.544 459.829 206.544C460.034 206.544 460.269 206.529 460.533 206.5C460.797 206.471 461.076 206.441 461.369 206.412V212C460.929 212.059 460.43 212.117 459.873 212.176C459.316 212.235 458.788 212.264 458.289 212.264ZM136.048 272.72V267H158.048V272.72H136.048ZM167.754 267V260.4H174.354V267H167.754Z" fill="white"/>
            <rect x="215.5" y="91.5" width="404" height="243" rx="31.5" fill="white" stroke="black" stroke-width="5"/>
            <path d="M262.656 158.528C260.309 158.528 258.124 158.103 256.1 157.252C254.076 156.401 252.301 155.213 250.776 153.688C249.251 152.163 248.063 150.373 247.212 148.32C246.361 146.267 245.936 144.023 245.936 141.588C245.936 139.153 246.347 136.909 247.168 134.856C247.989 132.773 249.148 130.984 250.644 129.488C252.14 127.963 253.885 126.789 255.88 125.968C257.904 125.117 260.104 124.692 262.48 124.692C264.856 124.692 266.983 125.088 268.86 125.88C270.767 126.672 272.38 127.728 273.7 129.048C275.02 130.368 275.959 131.835 276.516 133.448L270.488 136.352C269.931 134.768 268.948 133.463 267.54 132.436C266.161 131.38 264.475 130.852 262.48 130.852C260.544 130.852 258.843 131.307 257.376 132.216C255.909 133.125 254.765 134.387 253.944 136C253.152 137.584 252.756 139.447 252.756 141.588C252.756 143.729 253.181 145.607 254.032 147.22C254.883 148.833 256.041 150.095 257.508 151.004C259.004 151.913 260.72 152.368 262.656 152.368C264.152 152.368 265.545 152.089 266.836 151.532C268.156 150.945 269.212 150.109 270.004 149.024C270.825 147.939 271.236 146.633 271.236 145.108V142.38L274.36 145.02H262.48V139.3H278.056V142.776C278.056 145.445 277.616 147.777 276.736 149.772C275.856 151.737 274.668 153.38 273.172 154.7C271.705 155.991 270.048 156.959 268.2 157.604C266.381 158.22 264.533 158.528 262.656 158.528ZM293.355 158.528C290.803 158.528 288.589 157.971 286.711 156.856C284.834 155.712 283.382 154.187 282.355 152.28C281.329 150.373 280.815 148.261 280.815 145.944C280.815 143.539 281.343 141.397 282.399 139.52C283.485 137.643 284.937 136.161 286.755 135.076C288.574 133.991 290.627 133.448 292.915 133.448C294.822 133.448 296.509 133.756 297.975 134.372C299.442 134.959 300.674 135.795 301.671 136.88C302.698 137.965 303.475 139.227 304.003 140.664C304.531 142.072 304.795 143.612 304.795 145.284C304.795 145.753 304.766 146.223 304.707 146.692C304.678 147.132 304.605 147.513 304.487 147.836H286.491V142.996H300.747L297.623 145.284C297.917 144.023 297.902 142.908 297.579 141.94C297.257 140.943 296.685 140.165 295.863 139.608C295.071 139.021 294.089 138.728 292.915 138.728C291.771 138.728 290.789 139.007 289.967 139.564C289.146 140.121 288.53 140.943 288.119 142.028C287.709 143.113 287.547 144.433 287.635 145.988C287.518 147.337 287.679 148.525 288.119 149.552C288.559 150.579 289.234 151.385 290.143 151.972C291.053 152.529 292.153 152.808 293.443 152.808C294.617 152.808 295.614 152.573 296.435 152.104C297.286 151.635 297.946 150.989 298.415 150.168L303.695 152.676C303.226 153.849 302.478 154.876 301.451 155.756C300.454 156.636 299.266 157.325 297.887 157.824C296.509 158.293 294.998 158.528 293.355 158.528ZM320.254 158.264C317.35 158.264 315.091 157.487 313.478 155.932C311.894 154.348 311.102 152.148 311.102 149.332V139.696H307.054V133.976H307.274C308.506 133.976 309.444 133.668 310.09 133.052C310.764 132.436 311.102 131.512 311.102 130.28V128.52H317.702V133.976H323.334V139.696H317.702V148.892C317.702 149.713 317.848 150.403 318.142 150.96C318.435 151.488 318.89 151.884 319.506 152.148C320.122 152.412 320.884 152.544 321.794 152.544C321.999 152.544 322.234 152.529 322.498 152.5C322.762 152.471 323.04 152.441 323.334 152.412V158C322.894 158.059 322.395 158.117 321.838 158.176C321.28 158.235 320.752 158.264 320.254 158.264ZM338.773 158.264C335.869 158.264 333.611 157.487 331.997 155.932C330.413 154.348 329.621 152.148 329.621 149.332V139.696H325.573V133.976H325.793C327.025 133.976 327.964 133.668 328.609 133.052C329.284 132.436 329.621 131.512 329.621 130.28V128.52H336.221V133.976H341.853V139.696H336.221V148.892C336.221 149.713 336.368 150.403 336.661 150.96C336.955 151.488 337.409 151.884 338.025 152.148C338.641 152.412 339.404 152.544 340.313 152.544C340.519 152.544 340.753 152.529 341.017 152.5C341.281 152.471 341.56 152.441 341.853 152.412V158C341.413 158.059 340.915 158.117 340.357 158.176C339.8 158.235 339.272 158.264 338.773 158.264ZM345.721 158V133.976H352.321V158H345.721ZM345.721 131.82V125.22H352.321V131.82H345.721ZM357.15 158V133.976H363.31V138.728L362.958 137.672C363.516 136.235 364.41 135.179 365.642 134.504C366.904 133.8 368.37 133.448 370.042 133.448C371.861 133.448 373.445 133.829 374.794 134.592C376.173 135.355 377.244 136.425 378.006 137.804C378.769 139.153 379.15 140.737 379.15 142.556V158H372.55V143.964C372.55 143.025 372.36 142.219 371.978 141.544C371.626 140.869 371.113 140.341 370.438 139.96C369.793 139.579 369.03 139.388 368.15 139.388C367.3 139.388 366.537 139.579 365.862 139.96C365.188 140.341 364.66 140.869 364.278 141.544C363.926 142.219 363.75 143.025 363.75 143.964V158H357.15ZM395.282 167.68C393.434 167.68 391.718 167.372 390.134 166.756C388.55 166.14 387.186 165.275 386.042 164.16C384.928 163.075 384.121 161.784 383.622 160.288L389.738 158.132C390.061 159.247 390.721 160.127 391.718 160.772C392.716 161.417 393.904 161.74 395.282 161.74C396.368 161.74 397.306 161.535 398.098 161.124C398.89 160.743 399.492 160.171 399.902 159.408C400.342 158.645 400.562 157.751 400.562 156.724V151.224L401.838 152.808C401.017 154.157 399.961 155.169 398.67 155.844C397.38 156.489 395.869 156.812 394.138 156.812C391.909 156.812 389.914 156.313 388.154 155.316C386.394 154.289 385.016 152.896 384.018 151.136C383.021 149.347 382.522 147.323 382.522 145.064C382.522 142.805 383.021 140.811 384.018 139.08C385.016 137.32 386.38 135.941 388.11 134.944C389.841 133.947 391.806 133.448 394.006 133.448C395.737 133.448 397.248 133.8 398.538 134.504C399.829 135.179 400.929 136.22 401.838 137.628L401.002 139.212V133.976H407.162V156.724C407.162 158.836 406.649 160.713 405.622 162.356C404.596 164.028 403.188 165.333 401.398 166.272C399.638 167.211 397.6 167.68 395.282 167.68ZM395.062 150.828C396.177 150.828 397.145 150.593 397.966 150.124C398.788 149.655 399.418 148.995 399.858 148.144C400.328 147.293 400.562 146.296 400.562 145.152C400.562 144.008 400.328 143.011 399.858 142.16C399.389 141.28 398.744 140.605 397.922 140.136C397.101 139.637 396.148 139.388 395.062 139.388C393.948 139.388 392.95 139.637 392.07 140.136C391.22 140.605 390.545 141.28 390.046 142.16C389.577 143.011 389.342 144.008 389.342 145.152C389.342 146.267 389.577 147.249 390.046 148.1C390.545 148.951 391.22 149.625 392.07 150.124C392.95 150.593 393.948 150.828 395.062 150.828ZM429.344 158.528C426.704 158.528 424.401 157.912 422.436 156.68C420.5 155.419 419.18 153.732 418.476 151.62L423.316 149.332C423.932 150.623 424.768 151.635 425.824 152.368C426.88 153.101 428.053 153.468 429.344 153.468C430.282 153.468 431.001 153.277 431.5 152.896C431.998 152.515 432.248 151.987 432.248 151.312C432.248 150.96 432.16 150.667 431.984 150.432C431.808 150.168 431.544 149.933 431.192 149.728C430.84 149.523 430.4 149.347 429.872 149.2L425.78 148.056C423.814 147.499 422.304 146.604 421.248 145.372C420.192 144.111 419.664 142.629 419.664 140.928C419.664 139.432 420.045 138.127 420.808 137.012C421.57 135.897 422.641 135.032 424.02 134.416C425.398 133.771 426.982 133.448 428.772 133.448C431.118 133.448 433.172 134.005 434.932 135.12C436.721 136.205 437.982 137.745 438.716 139.74L433.832 142.028C433.48 141.031 432.834 140.239 431.896 139.652C430.986 139.036 429.945 138.728 428.772 138.728C427.921 138.728 427.246 138.904 426.748 139.256C426.278 139.608 426.044 140.092 426.044 140.708C426.044 141.031 426.132 141.324 426.308 141.588C426.484 141.852 426.762 142.087 427.144 142.292C427.554 142.497 428.053 142.688 428.64 142.864L432.468 144.008C434.462 144.595 435.988 145.489 437.044 146.692C438.1 147.865 438.628 149.317 438.628 151.048C438.628 152.544 438.232 153.849 437.44 154.964C436.677 156.079 435.606 156.959 434.228 157.604C432.849 158.22 431.221 158.528 429.344 158.528ZM448.479 158L440.207 133.976H447.027L452.835 151.312L450.459 151.268L456.927 133.976H462.647L469.071 151.268L466.695 151.312L472.503 133.976H479.367L471.051 158H465.331L458.643 139.432H460.931L454.199 158H448.479ZM493.77 158.528C491.394 158.528 489.223 157.985 487.258 156.9C485.322 155.815 483.767 154.333 482.594 152.456C481.45 150.549 480.878 148.393 480.878 145.988C480.878 143.553 481.45 141.397 482.594 139.52C483.767 137.643 485.322 136.161 487.258 135.076C489.223 133.991 491.394 133.448 493.77 133.448C496.146 133.448 498.302 133.991 500.238 135.076C502.174 136.161 503.714 137.643 504.858 139.52C506.031 141.397 506.618 143.553 506.618 145.988C506.618 148.393 506.031 150.549 504.858 152.456C503.714 154.333 502.174 155.815 500.238 156.9C498.302 157.985 496.146 158.528 493.77 158.528ZM493.77 152.588C494.972 152.588 496.014 152.309 496.894 151.752C497.803 151.195 498.507 150.417 499.006 149.42C499.534 148.423 499.798 147.279 499.798 145.988C499.798 144.697 499.534 143.568 499.006 142.6C498.507 141.603 497.803 140.825 496.894 140.268C496.014 139.681 494.972 139.388 493.77 139.388C492.567 139.388 491.511 139.681 490.602 140.268C489.692 140.825 488.974 141.603 488.446 142.6C487.947 143.568 487.698 144.697 487.698 145.988C487.698 147.279 487.947 148.423 488.446 149.42C488.974 150.417 489.692 151.195 490.602 151.752C491.511 152.309 492.567 152.588 493.77 152.588ZM510.506 158V124.692H517.106V158H510.506ZM533.508 158.528C530.956 158.528 528.741 157.971 526.864 156.856C524.986 155.712 523.534 154.187 522.508 152.28C521.481 150.373 520.968 148.261 520.968 145.944C520.968 143.539 521.496 141.397 522.552 139.52C523.637 137.643 525.089 136.161 526.908 135.076C528.726 133.991 530.78 133.448 533.068 133.448C534.974 133.448 536.661 133.756 538.128 134.372C539.594 134.959 540.826 135.795 541.824 136.88C542.85 137.965 543.628 139.227 544.156 140.664C544.684 142.072 544.948 143.612 544.948 145.284C544.948 145.753 544.918 146.223 544.86 146.692C544.83 147.132 544.757 147.513 544.64 147.836H526.644V142.996H540.9L537.776 145.284C538.069 144.023 538.054 142.908 537.732 141.94C537.409 140.943 536.837 140.165 536.016 139.608C535.224 139.021 534.241 138.728 533.068 138.728C531.924 138.728 530.941 139.007 530.12 139.564C529.298 140.121 528.682 140.943 528.272 142.028C527.861 143.113 527.7 144.433 527.788 145.988C527.67 147.337 527.832 148.525 528.272 149.552C528.712 150.579 529.386 151.385 530.296 151.972C531.205 152.529 532.305 152.808 533.596 152.808C534.769 152.808 535.766 152.573 536.588 152.104C537.438 151.635 538.098 150.989 538.568 150.168L543.848 152.676C543.378 153.849 542.63 154.876 541.604 155.756C540.606 156.636 539.418 157.325 538.04 157.824C536.661 158.293 535.15 158.528 533.508 158.528ZM552.09 158V151.4H558.69V158H552.09Z" fill="black"/>
            <path d="M48.86 68.396C47.1 68.396 45.461 68.077 43.943 67.439C42.447 66.801 41.138 65.91 40.016 64.766C38.894 63.622 38.014 62.28 37.376 60.74C36.76 59.2 36.452 57.517 36.452 55.691C36.452 53.865 36.76 52.182 37.376 50.642C37.992 49.08 38.861 47.738 39.983 46.616C41.105 45.472 42.414 44.592 43.91 43.976C45.428 43.338 47.078 43.019 48.86 43.019C50.642 43.019 52.237 43.316 53.645 43.91C55.075 44.504 56.285 45.296 57.275 46.286C58.265 47.276 58.969 48.376 59.387 49.586L54.866 51.764C54.448 50.576 53.711 49.597 52.655 48.827C51.621 48.035 50.356 47.639 48.86 47.639C47.408 47.639 46.132 47.98 45.032 48.662C43.932 49.344 43.074 50.29 42.458 51.5C41.864 52.688 41.567 54.085 41.567 55.691C41.567 57.297 41.864 58.705 42.458 59.915C43.074 61.125 43.932 62.071 45.032 62.753C46.132 63.435 47.408 63.776 48.86 63.776C50.356 63.776 51.621 63.391 52.655 62.621C53.711 61.829 54.448 60.839 54.866 59.651L59.387 61.829C58.969 63.039 58.265 64.139 57.275 65.129C56.285 66.119 55.075 66.911 53.645 67.505C52.237 68.099 50.642 68.396 48.86 68.396ZM67.5609 68.396C66.2629 68.396 65.1409 68.187 64.1949 67.769C63.2489 67.351 62.5229 66.757 62.0169 65.987C61.5109 65.195 61.2579 64.26 61.2579 63.182C61.2579 62.17 61.4889 61.279 61.9509 60.509C62.4129 59.717 63.1169 59.057 64.0629 58.529C65.0309 58.001 66.2299 57.627 67.6599 57.407L73.1709 56.516V60.146L68.5509 60.971C67.8469 61.103 67.3079 61.334 66.9339 61.664C66.5599 61.972 66.3729 62.423 66.3729 63.017C66.3729 63.567 66.5819 63.996 66.9999 64.304C67.4179 64.612 67.9349 64.766 68.5509 64.766C69.3649 64.766 70.0799 64.59 70.6959 64.238C71.3119 63.886 71.7849 63.413 72.1149 62.819C72.4669 62.203 72.6429 61.532 72.6429 60.806V56.12C72.6429 55.438 72.3679 54.866 71.8179 54.404C71.2899 53.942 70.5639 53.711 69.6399 53.711C68.7599 53.711 67.9789 53.953 67.2969 54.437C66.6369 54.921 66.1529 55.559 65.8449 56.351L61.8849 54.47C62.2369 53.458 62.7979 52.589 63.5679 51.863C64.3379 51.137 65.2619 50.576 66.3399 50.18C67.4179 49.784 68.5949 49.586 69.8709 49.586C71.3889 49.586 72.7309 49.861 73.8969 50.411C75.0629 50.961 75.9649 51.731 76.6029 52.721C77.2629 53.689 77.5929 54.822 77.5929 56.12V68H72.9729V65.096L74.0949 64.898C73.5669 65.69 72.9839 66.35 72.3459 66.878C71.7079 67.384 70.9929 67.758 70.2009 68C69.4089 68.264 68.5289 68.396 67.5609 68.396ZM81.2232 68V49.982H85.8432V54.305L85.5132 53.678C85.9092 52.16 86.5582 51.137 87.4602 50.609C88.3842 50.059 89.4732 49.784 90.7272 49.784H91.7832V54.074H90.2322C89.0222 54.074 88.0432 54.448 87.2952 55.196C86.5472 55.922 86.1732 56.956 86.1732 58.298V68H81.2232ZM102.434 68.396C100.674 68.396 99.1007 67.978 97.7147 67.142C96.3287 66.306 95.2287 65.173 94.4147 63.743C93.6227 62.313 93.2267 60.729 93.2267 58.991C93.2267 57.231 93.6337 55.647 94.4477 54.239C95.2617 52.809 96.3617 51.676 97.7477 50.84C99.1337 50.004 100.685 49.586 102.401 49.586C103.721 49.586 104.887 49.839 105.899 50.345C106.933 50.829 107.747 51.522 108.341 52.424L107.582 53.414V43.019H112.532V68H107.912V64.7L108.374 65.723C107.758 66.603 106.922 67.274 105.866 67.736C104.81 68.176 103.666 68.396 102.434 68.396ZM103.028 63.941C103.93 63.941 104.722 63.732 105.404 63.314C106.086 62.896 106.614 62.313 106.988 61.565C107.384 60.817 107.582 59.959 107.582 58.991C107.582 58.023 107.384 57.165 106.988 56.417C106.614 55.669 106.086 55.086 105.404 54.668C104.722 54.25 103.93 54.041 103.028 54.041C102.126 54.041 101.312 54.261 100.586 54.701C99.8817 55.119 99.3317 55.702 98.9357 56.45C98.5397 57.176 98.3417 58.023 98.3417 58.991C98.3417 59.959 98.5397 60.817 98.9357 61.565C99.3317 62.313 99.8817 62.896 100.586 63.314C101.312 63.732 102.126 63.941 103.028 63.941ZM123.219 68.396C121.239 68.396 119.512 67.934 118.038 67.01C116.586 66.064 115.596 64.799 115.068 63.215L118.698 61.499C119.16 62.467 119.787 63.226 120.579 63.776C121.371 64.326 122.251 64.601 123.219 64.601C123.923 64.601 124.462 64.458 124.836 64.172C125.21 63.886 125.397 63.49 125.397 62.984C125.397 62.72 125.331 62.5 125.199 62.324C125.067 62.126 124.869 61.95 124.605 61.796C124.341 61.642 124.011 61.51 123.615 61.4L120.546 60.542C119.072 60.124 117.939 59.453 117.147 58.529C116.355 57.583 115.959 56.472 115.959 55.196C115.959 54.074 116.245 53.095 116.817 52.259C117.389 51.423 118.192 50.774 119.226 50.312C120.26 49.828 121.448 49.586 122.79 49.586C124.55 49.586 126.09 50.004 127.41 50.84C128.752 51.654 129.698 52.809 130.248 54.305L126.585 56.021C126.321 55.273 125.837 54.679 125.133 54.239C124.451 53.777 123.67 53.546 122.79 53.546C122.152 53.546 121.646 53.678 121.272 53.942C120.92 54.206 120.744 54.569 120.744 55.031C120.744 55.273 120.81 55.493 120.942 55.691C121.074 55.889 121.283 56.065 121.569 56.219C121.877 56.373 122.251 56.516 122.691 56.648L125.562 57.506C127.058 57.946 128.202 58.617 128.994 59.519C129.786 60.399 130.182 61.488 130.182 62.786C130.182 63.908 129.885 64.887 129.291 65.723C128.719 66.559 127.916 67.219 126.882 67.703C125.848 68.165 124.627 68.396 123.219 68.396ZM144.647 68.396C143.349 68.396 142.227 68.187 141.281 67.769C140.335 67.351 139.609 66.757 139.103 65.987C138.597 65.195 138.344 64.26 138.344 63.182C138.344 62.17 138.575 61.279 139.037 60.509C139.499 59.717 140.203 59.057 141.149 58.529C142.117 58.001 143.316 57.627 144.746 57.407L150.257 56.516V60.146L145.637 60.971C144.933 61.103 144.394 61.334 144.02 61.664C143.646 61.972 143.459 62.423 143.459 63.017C143.459 63.567 143.668 63.996 144.086 64.304C144.504 64.612 145.021 64.766 145.637 64.766C146.451 64.766 147.166 64.59 147.782 64.238C148.398 63.886 148.871 63.413 149.201 62.819C149.553 62.203 149.729 61.532 149.729 60.806V56.12C149.729 55.438 149.454 54.866 148.904 54.404C148.376 53.942 147.65 53.711 146.726 53.711C145.846 53.711 145.065 53.953 144.383 54.437C143.723 54.921 143.239 55.559 142.931 56.351L138.971 54.47C139.323 53.458 139.884 52.589 140.654 51.863C141.424 51.137 142.348 50.576 143.426 50.18C144.504 49.784 145.681 49.586 146.957 49.586C148.475 49.586 149.817 49.861 150.983 50.411C152.149 50.961 153.051 51.731 153.689 52.721C154.349 53.689 154.679 54.822 154.679 56.12V68H150.059V65.096L151.181 64.898C150.653 65.69 150.07 66.35 149.432 66.878C148.794 67.384 148.079 67.758 147.287 68C146.495 68.264 145.615 68.396 144.647 68.396ZM167.153 75.26C165.767 75.26 164.48 75.029 163.292 74.567C162.104 74.105 161.081 73.456 160.223 72.62C159.387 71.806 158.782 70.838 158.408 69.716L162.995 68.099C163.237 68.935 163.732 69.595 164.48 70.079C165.228 70.563 166.119 70.805 167.153 70.805C167.967 70.805 168.671 70.651 169.265 70.343C169.859 70.057 170.31 69.628 170.618 69.056C170.948 68.484 171.113 67.813 171.113 67.043V62.918L172.07 64.106C171.454 65.118 170.662 65.877 169.694 66.383C168.726 66.867 167.593 67.109 166.295 67.109C164.623 67.109 163.127 66.735 161.807 65.987C160.487 65.217 159.453 64.172 158.705 62.852C157.957 61.51 157.583 59.992 157.583 58.298C157.583 56.604 157.957 55.108 158.705 53.81C159.453 52.49 160.476 51.456 161.774 50.708C163.072 49.96 164.546 49.586 166.196 49.586C167.494 49.586 168.627 49.85 169.595 50.378C170.563 50.884 171.388 51.665 172.07 52.721L171.443 53.909V49.982H176.063V67.043C176.063 68.627 175.678 70.035 174.908 71.267C174.138 72.521 173.082 73.5 171.74 74.204C170.42 74.908 168.891 75.26 167.153 75.26ZM166.988 62.621C167.824 62.621 168.55 62.445 169.166 62.093C169.782 61.741 170.255 61.246 170.585 60.608C170.937 59.97 171.113 59.222 171.113 58.364C171.113 57.506 170.937 56.758 170.585 56.12C170.233 55.46 169.749 54.954 169.133 54.602C168.517 54.228 167.802 54.041 166.988 54.041C166.152 54.041 165.404 54.228 164.744 54.602C164.106 54.954 163.6 55.46 163.226 56.12C162.874 56.758 162.698 57.506 162.698 58.364C162.698 59.2 162.874 59.937 163.226 60.575C163.6 61.213 164.106 61.719 164.744 62.093C165.404 62.445 166.152 62.621 166.988 62.621ZM185.285 68.396C183.987 68.396 182.865 68.187 181.919 67.769C180.973 67.351 180.247 66.757 179.741 65.987C179.235 65.195 178.982 64.26 178.982 63.182C178.982 62.17 179.213 61.279 179.675 60.509C180.137 59.717 180.841 59.057 181.787 58.529C182.755 58.001 183.954 57.627 185.384 57.407L190.895 56.516V60.146L186.275 60.971C185.571 61.103 185.032 61.334 184.658 61.664C184.284 61.972 184.097 62.423 184.097 63.017C184.097 63.567 184.306 63.996 184.724 64.304C185.142 64.612 185.659 64.766 186.275 64.766C187.089 64.766 187.804 64.59 188.42 64.238C189.036 63.886 189.509 63.413 189.839 62.819C190.191 62.203 190.367 61.532 190.367 60.806V56.12C190.367 55.438 190.092 54.866 189.542 54.404C189.014 53.942 188.288 53.711 187.364 53.711C186.484 53.711 185.703 53.953 185.021 54.437C184.361 54.921 183.877 55.559 183.569 56.351L179.609 54.47C179.961 53.458 180.522 52.589 181.292 51.863C182.062 51.137 182.986 50.576 184.064 50.18C185.142 49.784 186.319 49.586 187.595 49.586C189.113 49.586 190.455 49.861 191.621 50.411C192.787 50.961 193.689 51.731 194.327 52.721C194.987 53.689 195.317 54.822 195.317 56.12V68H190.697V65.096L191.819 64.898C191.291 65.69 190.708 66.35 190.07 66.878C189.432 67.384 188.717 67.758 187.925 68C187.133 68.264 186.253 68.396 185.285 68.396ZM198.947 68V49.982H203.897V68H198.947ZM198.947 48.365V43.415H203.897V48.365H198.947ZM207.519 68V49.982H212.139V53.546L211.875 52.754C212.293 51.676 212.964 50.884 213.888 50.378C214.834 49.85 215.934 49.586 217.188 49.586C218.552 49.586 219.74 49.872 220.752 50.444C221.786 51.016 222.589 51.819 223.161 52.853C223.733 53.865 224.019 55.053 224.019 56.417V68H219.069V57.473C219.069 56.769 218.926 56.164 218.64 55.658C218.376 55.152 217.991 54.756 217.485 54.47C217.001 54.184 216.429 54.041 215.769 54.041C215.131 54.041 214.559 54.184 214.053 54.47C213.547 54.756 213.151 55.152 212.865 55.658C212.601 56.164 212.469 56.769 212.469 57.473V68H207.519ZM234.336 68.396C232.356 68.396 230.629 67.934 229.155 67.01C227.703 66.064 226.713 64.799 226.185 63.215L229.815 61.499C230.277 62.467 230.904 63.226 231.696 63.776C232.488 64.326 233.368 64.601 234.336 64.601C235.04 64.601 235.579 64.458 235.953 64.172C236.327 63.886 236.514 63.49 236.514 62.984C236.514 62.72 236.448 62.5 236.316 62.324C236.184 62.126 235.986 61.95 235.722 61.796C235.458 61.642 235.128 61.51 234.732 61.4L231.663 60.542C230.189 60.124 229.056 59.453 228.264 58.529C227.472 57.583 227.076 56.472 227.076 55.196C227.076 54.074 227.362 53.095 227.934 52.259C228.506 51.423 229.309 50.774 230.343 50.312C231.377 49.828 232.565 49.586 233.907 49.586C235.667 49.586 237.207 50.004 238.527 50.84C239.869 51.654 240.815 52.809 241.365 54.305L237.702 56.021C237.438 55.273 236.954 54.679 236.25 54.239C235.568 53.777 234.787 53.546 233.907 53.546C233.269 53.546 232.763 53.678 232.389 53.942C232.037 54.206 231.861 54.569 231.861 55.031C231.861 55.273 231.927 55.493 232.059 55.691C232.191 55.889 232.4 56.065 232.686 56.219C232.994 56.373 233.368 56.516 233.808 56.648L236.679 57.506C238.175 57.946 239.319 58.617 240.111 59.519C240.903 60.399 241.299 61.488 241.299 62.786C241.299 63.908 241.002 64.887 240.408 65.723C239.836 66.559 239.033 67.219 237.999 67.703C236.965 68.165 235.744 68.396 234.336 68.396ZM252.936 68.198C250.758 68.198 249.064 67.615 247.854 66.449C246.666 65.261 246.072 63.611 246.072 61.499V54.272H243.036V49.982H243.201C244.125 49.982 244.829 49.751 245.313 49.289C245.819 48.827 246.072 48.134 246.072 47.21V45.89H251.022V49.982H255.246V54.272H251.022V61.169C251.022 61.785 251.132 62.302 251.352 62.72C251.572 63.116 251.913 63.413 252.375 63.611C252.837 63.809 253.409 63.908 254.091 63.908C254.245 63.908 254.421 63.897 254.619 63.875C254.817 63.853 255.026 63.831 255.246 63.809V68C254.916 68.044 254.542 68.088 254.124 68.132C253.706 68.176 253.31 68.198 252.936 68.198ZM264.44 68V43.415H269.555V54.041H279.125V43.415H284.24V68H279.125V58.496H269.555V68H264.44ZM294.715 68.396C293.263 68.396 292.02 68.088 290.986 67.472C289.974 66.834 289.204 65.954 288.676 64.832C288.148 63.71 287.884 62.401 287.884 60.905V49.982H292.834V60.509C292.834 61.191 292.966 61.796 293.23 62.324C293.516 62.83 293.912 63.226 294.418 63.512C294.924 63.798 295.496 63.941 296.134 63.941C296.794 63.941 297.366 63.798 297.85 63.512C298.356 63.226 298.741 62.83 299.005 62.324C299.291 61.796 299.434 61.191 299.434 60.509V49.982H304.384V68H299.764V64.436L300.028 65.228C299.61 66.306 298.928 67.109 297.982 67.637C297.058 68.143 295.969 68.396 294.715 68.396ZM308.002 68V49.982H312.622V54.371L312.127 53.645C312.391 52.259 313.029 51.236 314.041 50.576C315.053 49.916 316.263 49.586 317.671 49.586C319.167 49.586 320.476 49.971 321.598 50.741C322.742 51.489 323.457 52.501 323.743 53.777L322.324 53.909C322.918 52.435 323.765 51.346 324.865 50.642C325.965 49.938 327.252 49.586 328.726 49.586C330.024 49.586 331.168 49.872 332.158 50.444C333.17 51.016 333.962 51.819 334.534 52.853C335.106 53.865 335.392 55.053 335.392 56.417V68H330.442V57.473C330.442 56.769 330.31 56.164 330.046 55.658C329.804 55.152 329.452 54.756 328.99 54.47C328.528 54.184 327.967 54.041 327.307 54.041C326.669 54.041 326.108 54.184 325.624 54.47C325.162 54.756 324.799 55.152 324.535 55.658C324.293 56.164 324.172 56.769 324.172 57.473V68H319.222V57.473C319.222 56.769 319.09 56.164 318.826 55.658C318.584 55.152 318.232 54.756 317.77 54.47C317.308 54.184 316.747 54.041 316.087 54.041C315.449 54.041 314.888 54.184 314.404 54.47C313.942 54.756 313.579 55.152 313.315 55.658C313.073 56.164 312.952 56.769 312.952 57.473V68H308.002ZM344.226 68.396C342.928 68.396 341.806 68.187 340.86 67.769C339.914 67.351 339.188 66.757 338.682 65.987C338.176 65.195 337.923 64.26 337.923 63.182C337.923 62.17 338.154 61.279 338.616 60.509C339.078 59.717 339.782 59.057 340.728 58.529C341.696 58.001 342.895 57.627 344.325 57.407L349.836 56.516V60.146L345.216 60.971C344.512 61.103 343.973 61.334 343.599 61.664C343.225 61.972 343.038 62.423 343.038 63.017C343.038 63.567 343.247 63.996 343.665 64.304C344.083 64.612 344.6 64.766 345.216 64.766C346.03 64.766 346.745 64.59 347.361 64.238C347.977 63.886 348.45 63.413 348.78 62.819C349.132 62.203 349.308 61.532 349.308 60.806V56.12C349.308 55.438 349.033 54.866 348.483 54.404C347.955 53.942 347.229 53.711 346.305 53.711C345.425 53.711 344.644 53.953 343.962 54.437C343.302 54.921 342.818 55.559 342.51 56.351L338.55 54.47C338.902 53.458 339.463 52.589 340.233 51.863C341.003 51.137 341.927 50.576 343.005 50.18C344.083 49.784 345.26 49.586 346.536 49.586C348.054 49.586 349.396 49.861 350.562 50.411C351.728 50.961 352.63 51.731 353.268 52.721C353.928 53.689 354.258 54.822 354.258 56.12V68H349.638V65.096L350.76 64.898C350.232 65.69 349.649 66.35 349.011 66.878C348.373 67.384 347.658 67.758 346.866 68C346.074 68.264 345.194 68.396 344.226 68.396ZM357.888 68V49.982H362.508V53.546L362.244 52.754C362.662 51.676 363.333 50.884 364.257 50.378C365.203 49.85 366.303 49.586 367.557 49.586C368.921 49.586 370.109 49.872 371.121 50.444C372.155 51.016 372.958 51.819 373.53 52.853C374.102 53.865 374.388 55.053 374.388 56.417V68H369.438V57.473C369.438 56.769 369.295 56.164 369.009 55.658C368.745 55.152 368.36 54.756 367.854 54.47C367.37 54.184 366.798 54.041 366.138 54.041C365.5 54.041 364.928 54.184 364.422 54.47C363.916 54.756 363.52 55.152 363.234 55.658C362.97 56.164 362.838 56.769 362.838 57.473V68H357.888ZM377.643 68V49.982H382.593V68H377.643ZM377.643 48.365V43.415H382.593V48.365H377.643ZM394.894 68.198C392.716 68.198 391.022 67.615 389.812 66.449C388.624 65.261 388.03 63.611 388.03 61.499V54.272H384.994V49.982H385.159C386.083 49.982 386.787 49.751 387.271 49.289C387.777 48.827 388.03 48.134 388.03 47.21V45.89H392.98V49.982H397.204V54.272H392.98V61.169C392.98 61.785 393.09 62.302 393.31 62.72C393.53 63.116 393.871 63.413 394.333 63.611C394.795 63.809 395.367 63.908 396.049 63.908C396.203 63.908 396.379 63.897 396.577 63.875C396.775 63.853 396.984 63.831 397.204 63.809V68C396.874 68.044 396.5 68.088 396.082 68.132C395.664 68.176 395.268 68.198 394.894 68.198ZM402.91 75.326C402.382 75.326 401.865 75.282 401.359 75.194C400.875 75.106 400.446 74.963 400.072 74.765V70.706C400.38 70.794 400.743 70.871 401.161 70.937C401.579 71.003 401.964 71.036 402.316 71.036C403.284 71.036 403.977 70.805 404.395 70.343C404.813 69.881 405.154 69.353 405.418 68.759L406.639 65.954L406.573 70.079L398.653 49.982H403.966L409.213 64.271H407.233L412.48 49.982H417.793L410.071 69.683C409.587 70.937 408.993 71.982 408.289 72.818C407.585 73.654 406.782 74.281 405.88 74.699C405 75.117 404.01 75.326 402.91 75.326Z" fill="black"/>
        </g>
    </g>
    <defs>
        <linearGradient id="paint0_linear_26_2" x1="28" y1="17.5" x2="449.5" y2="281" gradientUnits="userSpaceOnUse">
            <stop stop-color="#F4F4F4"/>
            <stop offset="1" stop-color="#7C7C7C"/>
        </linearGradient>
        <clipPath id="clip0_26_2">
            <rect width="569" height="286" fill="white"/>
        </clipPath>
    </defs>
</svg>
