<svg width="569" height="286" viewBox="0 0 569 286" fill="none" xmlns="http://www.w3.org/2000/svg">
    <g clip-path="url(#clip0_26_15)">
        <rect x="2.5" y="2.5" width="564" height="281" rx="27.5" fill="url(#paint0_linear_26_15)" stroke="black" stroke-width="5"/>
        <mask id="mask0_26_15" style="mask-type:alpha" maskUnits="userSpaceOnUse" x="5" y="5" width="559" height="276">
            <rect x="5" y="5" width="559" height="276" rx="25" fill="#D9D9D9"/>
        </mask>
        <g mask="url(#mask0_26_15)">
            <path d="M46.121 68.396C44.581 68.396 43.129 68.121 41.765 67.571C40.423 66.999 39.257 66.196 38.267 65.162C37.299 64.128 36.573 62.907 36.089 61.499L40.28 59.618C40.896 60.96 41.743 62.016 42.821 62.786C43.921 63.556 45.131 63.941 46.451 63.941C47.155 63.941 47.76 63.831 48.266 63.611C48.772 63.391 49.168 63.094 49.454 62.72C49.74 62.324 49.883 61.862 49.883 61.334C49.883 60.762 49.707 60.278 49.355 59.882C49.003 59.464 48.453 59.134 47.705 58.892L42.887 57.308C40.929 56.67 39.455 55.768 38.465 54.602C37.475 53.414 36.98 51.995 36.98 50.345C36.98 48.893 37.332 47.617 38.036 46.517C38.762 45.417 39.763 44.559 41.039 43.943C42.337 43.327 43.822 43.019 45.494 43.019C46.968 43.019 48.332 43.272 49.586 43.778C50.84 44.284 51.918 44.999 52.82 45.923C53.744 46.847 54.437 47.958 54.899 49.256L50.741 51.137C50.279 49.993 49.586 49.102 48.662 48.464C47.738 47.804 46.682 47.474 45.494 47.474C44.812 47.474 44.207 47.584 43.679 47.804C43.151 48.024 42.744 48.343 42.458 48.761C42.172 49.157 42.029 49.619 42.029 50.147C42.029 50.719 42.216 51.225 42.59 51.665C42.964 52.083 43.525 52.413 44.273 52.655L48.992 54.173C50.972 54.811 52.446 55.702 53.414 56.846C54.404 57.99 54.899 59.387 54.899 61.037C54.899 62.467 54.525 63.743 53.777 64.865C53.029 65.965 51.995 66.834 50.675 67.472C49.377 68.088 47.859 68.396 46.121 68.396ZM66.8602 68.198C64.6822 68.198 62.9882 67.615 61.7782 66.449C60.5902 65.261 59.9962 63.611 59.9962 61.499V54.272H56.9602V49.982H57.1252C58.0492 49.982 58.7532 49.751 59.2372 49.289C59.7432 48.827 59.9962 48.134 59.9962 47.21V45.89H64.9462V49.982H69.1702V54.272H64.9462V61.169C64.9462 61.785 65.0562 62.302 65.2762 62.72C65.4962 63.116 65.8372 63.413 66.2992 63.611C66.7612 63.809 67.3332 63.908 68.0152 63.908C68.1692 63.908 68.3452 63.897 68.5432 63.875C68.7412 63.853 68.9502 63.831 69.1702 63.809V68C68.8402 68.044 68.4662 68.088 68.0482 68.132C67.6302 68.176 67.2342 68.198 66.8602 68.198ZM77.6479 68.396C76.3499 68.396 75.2279 68.187 74.2819 67.769C73.3359 67.351 72.6099 66.757 72.1039 65.987C71.5979 65.195 71.3449 64.26 71.3449 63.182C71.3449 62.17 71.5759 61.279 72.0379 60.509C72.4999 59.717 73.2039 59.057 74.1499 58.529C75.1179 58.001 76.3169 57.627 77.7469 57.407L83.2579 56.516V60.146L78.6379 60.971C77.9339 61.103 77.3949 61.334 77.0209 61.664C76.6469 61.972 76.4599 62.423 76.4599 63.017C76.4599 63.567 76.6689 63.996 77.0869 64.304C77.5049 64.612 78.0219 64.766 78.6379 64.766C79.4519 64.766 80.1669 64.59 80.7829 64.238C81.3989 63.886 81.8719 63.413 82.2019 62.819C82.5539 62.203 82.7299 61.532 82.7299 60.806V56.12C82.7299 55.438 82.4549 54.866 81.9049 54.404C81.3769 53.942 80.6509 53.711 79.7269 53.711C78.8469 53.711 78.0659 53.953 77.3839 54.437C76.7239 54.921 76.2399 55.559 75.9319 56.351L71.9719 54.47C72.3239 53.458 72.8849 52.589 73.6549 51.863C74.4249 51.137 75.3489 50.576 76.4269 50.18C77.5049 49.784 78.6819 49.586 79.9579 49.586C81.4759 49.586 82.8179 49.861 83.9839 50.411C85.1499 50.961 86.0519 51.731 86.6899 52.721C87.3499 53.689 87.6799 54.822 87.6799 56.12V68H83.0599V65.096L84.1819 64.898C83.6539 65.69 83.0709 66.35 82.4329 66.878C81.7949 67.384 81.0799 67.758 80.2879 68C79.4959 68.264 78.6159 68.396 77.6479 68.396ZM99.7911 68.396C98.0311 68.396 96.4581 67.978 95.0721 67.142C93.6861 66.306 92.5861 65.173 91.7721 63.743C90.9801 62.313 90.5841 60.729 90.5841 58.991C90.5841 57.231 90.9911 55.647 91.8051 54.239C92.6191 52.809 93.7191 51.676 95.1051 50.84C96.4911 50.004 98.0421 49.586 99.7581 49.586C101.078 49.586 102.244 49.839 103.256 50.345C104.29 50.829 105.104 51.522 105.698 52.424L104.939 53.414V43.019H109.889V68H105.269V64.7L105.731 65.723C105.115 66.603 104.279 67.274 103.223 67.736C102.167 68.176 101.023 68.396 99.7911 68.396ZM100.385 63.941C101.287 63.941 102.079 63.732 102.761 63.314C103.443 62.896 103.971 62.313 104.345 61.565C104.741 60.817 104.939 59.959 104.939 58.991C104.939 58.023 104.741 57.165 104.345 56.417C103.971 55.669 103.443 55.086 102.761 54.668C102.079 54.25 101.287 54.041 100.385 54.041C99.4831 54.041 98.6691 54.261 97.9431 54.701C97.2391 55.119 96.6891 55.702 96.2931 56.45C95.8971 57.176 95.6991 58.023 95.6991 58.991C95.6991 59.959 95.8971 60.817 96.2931 61.565C96.6891 62.313 97.2391 62.896 97.9431 63.314C98.6691 63.732 99.4831 63.941 100.385 63.941ZM122.193 68.198C120.015 68.198 118.321 67.615 117.111 66.449C115.923 65.261 115.329 63.611 115.329 61.499V54.272H112.293V49.982H112.458C113.382 49.982 114.086 49.751 114.57 49.289C115.076 48.827 115.329 48.134 115.329 47.21V45.89H120.279V49.982H124.503V54.272H120.279V61.169C120.279 61.785 120.389 62.302 120.609 62.72C120.829 63.116 121.17 63.413 121.632 63.611C122.094 63.809 122.666 63.908 123.348 63.908C123.502 63.908 123.678 63.897 123.876 63.875C124.074 63.853 124.283 63.831 124.503 63.809V68C124.173 68.044 123.799 68.088 123.381 68.132C122.963 68.176 122.567 68.198 122.193 68.198ZM128.625 61.136V56.846H143.475V61.136H128.625ZM148.682 68V43.415H153.797V63.545H164.192V68H148.682ZM171.943 68.396C170.645 68.396 169.523 68.187 168.577 67.769C167.631 67.351 166.905 66.757 166.399 65.987C165.893 65.195 165.64 64.26 165.64 63.182C165.64 62.17 165.871 61.279 166.333 60.509C166.795 59.717 167.499 59.057 168.445 58.529C169.413 58.001 170.612 57.627 172.042 57.407L177.553 56.516V60.146L172.933 60.971C172.229 61.103 171.69 61.334 171.316 61.664C170.942 61.972 170.755 62.423 170.755 63.017C170.755 63.567 170.964 63.996 171.382 64.304C171.8 64.612 172.317 64.766 172.933 64.766C173.747 64.766 174.462 64.59 175.078 64.238C175.694 63.886 176.167 63.413 176.497 62.819C176.849 62.203 177.025 61.532 177.025 60.806V56.12C177.025 55.438 176.75 54.866 176.2 54.404C175.672 53.942 174.946 53.711 174.022 53.711C173.142 53.711 172.361 53.953 171.679 54.437C171.019 54.921 170.535 55.559 170.227 56.351L166.267 54.47C166.619 53.458 167.18 52.589 167.95 51.863C168.72 51.137 169.644 50.576 170.722 50.18C171.8 49.784 172.977 49.586 174.253 49.586C175.771 49.586 177.113 49.861 178.279 50.411C179.445 50.961 180.347 51.731 180.985 52.721C181.645 53.689 181.975 54.822 181.975 56.12V68H177.355V65.096L178.477 64.898C177.949 65.69 177.366 66.35 176.728 66.878C176.09 67.384 175.375 67.758 174.583 68C173.791 68.264 172.911 68.396 171.943 68.396ZM185.605 68V49.982H190.225V53.546L189.961 52.754C190.379 51.676 191.05 50.884 191.974 50.378C192.92 49.85 194.02 49.586 195.274 49.586C196.638 49.586 197.826 49.872 198.838 50.444C199.872 51.016 200.675 51.819 201.247 52.853C201.819 53.865 202.105 55.053 202.105 56.417V68H197.155V57.473C197.155 56.769 197.012 56.164 196.726 55.658C196.462 55.152 196.077 54.756 195.571 54.47C195.087 54.184 194.515 54.041 193.855 54.041C193.217 54.041 192.645 54.184 192.139 54.47C191.633 54.756 191.237 55.152 190.951 55.658C190.687 56.164 190.555 56.769 190.555 57.473V68H185.605ZM213.841 68.396C212.081 68.396 210.508 67.978 209.122 67.142C207.736 66.306 206.636 65.173 205.822 63.743C205.03 62.313 204.634 60.729 204.634 58.991C204.634 57.231 205.041 55.647 205.855 54.239C206.669 52.809 207.769 51.676 209.155 50.84C210.541 50.004 212.092 49.586 213.808 49.586C215.128 49.586 216.294 49.839 217.306 50.345C218.34 50.829 219.154 51.522 219.748 52.424L218.989 53.414V43.019H223.939V68H219.319V64.7L219.781 65.723C219.165 66.603 218.329 67.274 217.273 67.736C216.217 68.176 215.073 68.396 213.841 68.396ZM214.435 63.941C215.337 63.941 216.129 63.732 216.811 63.314C217.493 62.896 218.021 62.313 218.395 61.565C218.791 60.817 218.989 59.959 218.989 58.991C218.989 58.023 218.791 57.165 218.395 56.417C218.021 55.669 217.493 55.086 216.811 54.668C216.129 54.25 215.337 54.041 214.435 54.041C213.533 54.041 212.719 54.261 211.993 54.701C211.289 55.119 210.739 55.702 210.343 56.45C209.947 57.176 209.749 58.023 209.749 58.991C209.749 59.959 209.947 60.817 210.343 61.565C210.739 62.313 211.289 62.896 211.993 63.314C212.719 63.732 213.533 63.941 214.435 63.941ZM228.785 61.136V56.846H243.635V61.136H228.785ZM248.842 68V43.415H265.672V47.87H253.957V54.107H264.022V58.562H253.957V68H248.842ZM267.847 68V43.019H272.797V68H267.847ZM282.887 68.396C281.435 68.396 280.192 68.088 279.158 67.472C278.146 66.834 277.376 65.954 276.848 64.832C276.32 63.71 276.056 62.401 276.056 60.905V49.982H281.006V60.509C281.006 61.191 281.138 61.796 281.402 62.324C281.688 62.83 282.084 63.226 282.59 63.512C283.096 63.798 283.668 63.941 284.306 63.941C284.966 63.941 285.538 63.798 286.022 63.512C286.528 63.226 286.913 62.83 287.177 62.324C287.463 61.796 287.606 61.191 287.606 60.509V49.982H292.556V68H287.936V64.436L288.2 65.228C287.782 66.306 287.1 67.109 286.154 67.637C285.23 68.143 284.141 68.396 282.887 68.396ZM303.236 68.396C301.256 68.396 299.529 67.934 298.055 67.01C296.603 66.064 295.613 64.799 295.085 63.215L298.715 61.499C299.177 62.467 299.804 63.226 300.596 63.776C301.388 64.326 302.268 64.601 303.236 64.601C303.94 64.601 304.479 64.458 304.853 64.172C305.227 63.886 305.414 63.49 305.414 62.984C305.414 62.72 305.348 62.5 305.216 62.324C305.084 62.126 304.886 61.95 304.622 61.796C304.358 61.642 304.028 61.51 303.632 61.4L300.563 60.542C299.089 60.124 297.956 59.453 297.164 58.529C296.372 57.583 295.976 56.472 295.976 55.196C295.976 54.074 296.262 53.095 296.834 52.259C297.406 51.423 298.209 50.774 299.243 50.312C300.277 49.828 301.465 49.586 302.807 49.586C304.567 49.586 306.107 50.004 307.427 50.84C308.769 51.654 309.715 52.809 310.265 54.305L306.602 56.021C306.338 55.273 305.854 54.679 305.15 54.239C304.468 53.777 303.687 53.546 302.807 53.546C302.169 53.546 301.663 53.678 301.289 53.942C300.937 54.206 300.761 54.569 300.761 55.031C300.761 55.273 300.827 55.493 300.959 55.691C301.091 55.889 301.3 56.065 301.586 56.219C301.894 56.373 302.268 56.516 302.708 56.648L305.579 57.506C307.075 57.946 308.219 58.617 309.011 59.519C309.803 60.399 310.199 61.488 310.199 62.786C310.199 63.908 309.902 64.887 309.308 65.723C308.736 66.559 307.933 67.219 306.899 67.703C305.865 68.165 304.644 68.396 303.236 68.396ZM320.22 68.396C318.24 68.396 316.513 67.934 315.039 67.01C313.587 66.064 312.597 64.799 312.069 63.215L315.699 61.499C316.161 62.467 316.788 63.226 317.58 63.776C318.372 64.326 319.252 64.601 320.22 64.601C320.924 64.601 321.463 64.458 321.837 64.172C322.211 63.886 322.398 63.49 322.398 62.984C322.398 62.72 322.332 62.5 322.2 62.324C322.068 62.126 321.87 61.95 321.606 61.796C321.342 61.642 321.012 61.51 320.616 61.4L317.547 60.542C316.073 60.124 314.94 59.453 314.148 58.529C313.356 57.583 312.96 56.472 312.96 55.196C312.96 54.074 313.246 53.095 313.818 52.259C314.39 51.423 315.193 50.774 316.227 50.312C317.261 49.828 318.449 49.586 319.791 49.586C321.551 49.586 323.091 50.004 324.411 50.84C325.753 51.654 326.699 52.809 327.249 54.305L323.586 56.021C323.322 55.273 322.838 54.679 322.134 54.239C321.452 53.777 320.671 53.546 319.791 53.546C319.153 53.546 318.647 53.678 318.273 53.942C317.921 54.206 317.745 54.569 317.745 55.031C317.745 55.273 317.811 55.493 317.943 55.691C318.075 55.889 318.284 56.065 318.57 56.219C318.878 56.373 319.252 56.516 319.692 56.648L322.563 57.506C324.059 57.946 325.203 58.617 325.995 59.519C326.787 60.399 327.183 61.488 327.183 62.786C327.183 63.908 326.886 64.887 326.292 65.723C325.72 66.559 324.917 67.219 323.883 67.703C322.849 68.165 321.628 68.396 320.22 68.396Z" fill="white"/>
            <path d="M42.02 296.172C32.3667 296.172 23.377 294.422 15.051 290.923C6.84567 287.424 -0.333998 282.537 -6.488 276.262C-12.642 269.987 -17.4687 262.627 -20.968 254.18C-24.3467 245.733 -26.036 236.502 -26.036 226.487C-26.036 216.472 -24.3467 207.241 -20.968 198.794C-17.5893 190.227 -12.823 182.866 -6.669 176.712C-0.514999 170.437 6.66467 165.611 14.87 162.232C23.196 158.733 32.246 156.983 42.02 156.983C51.794 156.983 60.5423 158.612 68.265 161.87C76.1083 165.128 82.745 169.472 88.175 174.902C93.605 180.332 97.4663 186.365 99.759 193.002L74.962 204.948C72.6693 198.432 68.627 193.062 62.835 188.839C57.1637 184.495 50.2253 182.323 42.02 182.323C34.056 182.323 27.0573 184.193 21.024 187.934C14.9907 191.675 10.2847 196.863 6.906 203.5C3.648 210.016 2.019 217.678 2.019 226.487C2.019 235.296 3.648 243.018 6.906 249.655C10.2847 256.292 14.9907 261.48 21.024 265.221C27.0573 268.962 34.056 270.832 42.02 270.832C50.2253 270.832 57.1637 268.72 62.835 264.497C68.627 260.153 72.6693 254.723 74.962 248.207L99.759 260.153C97.4663 266.79 93.605 272.823 88.175 278.253C82.745 283.683 76.1083 288.027 68.265 291.285C60.5423 294.543 51.794 296.172 42.02 296.172ZM135.861 294V159.155H179.844C194.445 159.155 207.115 162.051 217.854 167.843C228.594 173.635 236.92 181.599 242.832 191.735C248.745 201.871 251.701 213.455 251.701 226.487C251.701 239.519 248.745 251.163 242.832 261.42C236.92 271.556 228.594 279.52 217.854 285.312C207.115 291.104 194.445 294 179.844 294H135.861ZM163.916 269.565H180.568C189.377 269.565 196.979 267.815 203.374 264.316C209.77 260.696 214.717 255.688 218.216 249.293C221.836 242.777 223.646 235.175 223.646 226.487C223.646 217.678 221.836 210.076 218.216 203.681C214.717 197.286 209.77 192.338 203.374 188.839C196.979 185.34 189.377 183.59 180.568 183.59H163.916V269.565ZM287.767 294V159.155H378.448V183.59H315.822V214.179H374.828V238.614H315.822V269.565H378.448V294H287.767ZM412.452 294V159.155H504.762V183.59H440.507V217.799H495.712V242.234H440.507V294H412.452ZM599.814 296.172C590.161 296.172 581.171 294.422 572.845 290.923C564.519 287.424 557.219 282.537 550.944 276.262C544.669 269.987 539.782 262.627 536.283 254.18C532.784 245.733 531.034 236.502 531.034 226.487C531.034 216.472 532.723 207.241 536.102 198.794C539.481 190.227 544.247 182.866 550.401 176.712C556.555 170.437 563.735 165.611 571.94 162.232C580.266 158.733 589.316 156.983 599.09 156.983C608.864 156.983 617.612 158.612 625.335 161.87C633.178 165.128 639.815 169.472 645.245 174.902C650.675 180.332 654.536 186.365 656.829 193.002L632.032 204.948C629.739 198.432 625.697 193.062 619.905 188.839C614.234 184.495 607.295 182.323 599.09 182.323C591.126 182.323 584.127 184.193 578.094 187.934C572.061 191.675 567.355 196.863 563.976 203.5C560.718 210.016 559.089 217.678 559.089 226.487C559.089 235.296 560.839 243.018 564.338 249.655C567.837 256.292 572.604 261.48 578.637 265.221C584.791 268.962 591.85 270.832 599.814 270.832C605.968 270.832 611.7 269.686 617.009 267.393C622.439 264.98 626.783 261.541 630.041 257.076C633.42 252.611 635.109 247.242 635.109 240.967V229.745L647.96 240.605H599.09V217.075H663.164V231.374C663.164 242.355 661.354 251.948 657.734 260.153C654.114 268.238 649.227 274.995 643.073 280.425C637.04 285.734 630.222 289.716 622.62 292.371C615.139 294.905 607.537 296.172 599.814 296.172ZM698.588 294V159.155H726.643V217.437H779.133V159.155H807.188V294H779.133V241.872H726.643V294H698.588ZM849.256 294V159.155H877.311V294H849.256Z" fill="white" fill-opacity="0.3"/>
            <rect width="559" height="5" transform="matrix(1 0 0 -1 5 108)" fill="black"/>
            <ellipse cx="506.5" cy="59" rx="170.5" ry="119" fill="url(#paint1_radial_26_15)" fill-opacity="0.15"/>
            <ellipse cx="70.5" cy="73" rx="122.5" ry="119" fill="url(#paint2_radial_26_15)" fill-opacity="0.15"/>
            <ellipse cx="206.5" cy="271" rx="170.5" ry="119" fill="url(#paint3_radial_26_15)" fill-opacity="0.15"/>
        </g>
    </g>
    <defs>
        <linearGradient id="paint0_linear_26_15" x1="28" y1="17.5" x2="449.5" y2="281" gradientUnits="userSpaceOnUse">
            <stop stop-color="#2D2D2D"/>
            <stop offset="1"/>
        </linearGradient>
        <radialGradient id="paint1_radial_26_15" cx="0" cy="0" r="1" gradientUnits="userSpaceOnUse" gradientTransform="translate(506.5 59) rotate(90) scale(119 170.5)">
            <stop stop-color="#FF1C1C"/>
            <stop offset="1" stop-color="#FF1C1C" stop-opacity="0"/>
        </radialGradient>
        <radialGradient id="paint2_radial_26_15" cx="0" cy="0" r="1" gradientUnits="userSpaceOnUse" gradientTransform="translate(70.5 73) rotate(90) scale(119 122.5)">
            <stop stop-color="#1C4EFF"/>
            <stop offset="1" stop-color="#1C4EFF" stop-opacity="0"/>
        </radialGradient>
        <radialGradient id="paint3_radial_26_15" cx="0" cy="0" r="1" gradientUnits="userSpaceOnUse" gradientTransform="translate(206.5 271) rotate(90) scale(119 170.5)">
            <stop stop-color="#1CFF92"/>
            <stop offset="1" stop-color="#1CFF92" stop-opacity="0"/>
        </radialGradient>
        <clipPath id="clip0_26_15">
            <rect width="569" height="286" fill="white"/>
        </clipPath>
    </defs>
</svg>
