<svg width="569" height="286" viewBox="0 0 569 286" fill="none" xmlns="http://www.w3.org/2000/svg">
    <g clip-path="url(#clip0_26_31)">
        <rect x="2.5" y="2.5" width="564" height="281" rx="27.5" fill="url(#paint0_linear_26_31)" stroke="black" stroke-width="5"/>
        <mask id="mask0_26_31" style="mask-type:alpha" maskUnits="userSpaceOnUse" x="5" y="5" width="559" height="276">
            <rect x="5" y="5" width="559" height="276" rx="25" fill="white"/>
        </mask>
        <g mask="url(#mask0_26_31)">
            <path d="M41.798 68L35.363 43.415H40.907L45.758 64.007H44.273L49.388 43.415H54.668L59.783 64.007H58.298L63.149 43.415H68.693L62.258 68H56.318L51.17 48.2H52.886L47.738 68H41.798ZM76.3475 68.396C74.8955 68.396 73.6525 68.088 72.6185 67.472C71.6065 66.834 70.8365 65.954 70.3085 64.832C69.7805 63.71 69.5165 62.401 69.5165 60.905V49.982H74.4665V60.509C74.4665 61.191 74.5985 61.796 74.8625 62.324C75.1485 62.83 75.5445 63.226 76.0505 63.512C76.5565 63.798 77.1285 63.941 77.7665 63.941C78.4265 63.941 78.9985 63.798 79.4825 63.512C79.9885 63.226 80.3735 62.83 80.6375 62.324C80.9235 61.796 81.0665 61.191 81.0665 60.509V49.982H86.0165V68H81.3965V64.436L81.6605 65.228C81.2425 66.306 80.5605 67.109 79.6145 67.637C78.6905 68.143 77.6015 68.396 76.3475 68.396ZM71.6945 46.88V41.93H76.6445V46.88H71.6945ZM79.2845 46.88V41.93H84.2345V46.88H79.2845ZM89.6343 68V49.982H94.2543V54.305L93.9243 53.678C94.3203 52.16 94.9693 51.137 95.8713 50.609C96.7953 50.059 97.8843 49.784 99.1383 49.784H100.194V54.074H98.6433C97.4333 54.074 96.4543 54.448 95.7063 55.196C94.9583 55.922 94.5843 56.956 94.5843 58.298V68H89.6343ZM110.845 68.396C109.085 68.396 107.512 67.978 106.126 67.142C104.74 66.306 103.64 65.173 102.826 63.743C102.034 62.313 101.638 60.729 101.638 58.991C101.638 57.231 102.045 55.647 102.859 54.239C103.673 52.809 104.773 51.676 106.159 50.84C107.545 50.004 109.096 49.586 110.812 49.586C112.132 49.586 113.298 49.839 114.31 50.345C115.344 50.829 116.158 51.522 116.752 52.424L115.993 53.414V43.019H120.943V68H116.323V64.7L116.785 65.723C116.169 66.603 115.333 67.274 114.277 67.736C113.221 68.176 112.077 68.396 110.845 68.396ZM111.439 63.941C112.341 63.941 113.133 63.732 113.815 63.314C114.497 62.896 115.025 62.313 115.399 61.565C115.795 60.817 115.993 59.959 115.993 58.991C115.993 58.023 115.795 57.165 115.399 56.417C115.025 55.669 114.497 55.086 113.815 54.668C113.133 54.25 112.341 54.041 111.439 54.041C110.537 54.041 109.723 54.261 108.997 54.701C108.293 55.119 107.743 55.702 107.347 56.45C106.951 57.176 106.753 58.023 106.753 58.991C106.753 59.959 106.951 60.817 107.347 61.565C107.743 62.313 108.293 62.896 108.997 63.314C109.723 63.732 110.537 63.941 111.439 63.941ZM133.247 68.396C131.333 68.396 129.672 67.978 128.264 67.142C126.856 66.284 125.767 65.14 124.997 63.71C124.227 62.28 123.842 60.696 123.842 58.958C123.842 57.154 124.238 55.548 125.03 54.14C125.844 52.732 126.933 51.621 128.297 50.807C129.661 49.993 131.201 49.586 132.917 49.586C134.347 49.586 135.612 49.817 136.712 50.279C137.812 50.719 138.736 51.346 139.484 52.16C140.254 52.974 140.837 53.92 141.233 54.998C141.629 56.054 141.827 57.209 141.827 58.463C141.827 58.815 141.805 59.167 141.761 59.519C141.739 59.849 141.684 60.135 141.596 60.377H128.099V56.747H138.791L136.448 58.463C136.668 57.517 136.657 56.681 136.415 55.955C136.173 55.207 135.744 54.624 135.128 54.206C134.534 53.766 133.797 53.546 132.917 53.546C132.059 53.546 131.322 53.755 130.706 54.173C130.09 54.591 129.628 55.207 129.32 56.021C129.012 56.835 128.891 57.825 128.957 58.991C128.869 60.003 128.99 60.894 129.32 61.664C129.65 62.434 130.156 63.039 130.838 63.479C131.52 63.897 132.345 64.106 133.313 64.106C134.193 64.106 134.941 63.93 135.557 63.578C136.195 63.226 136.69 62.742 137.042 62.126L141.002 64.007C140.65 64.887 140.089 65.657 139.319 66.317C138.571 66.977 137.68 67.494 136.646 67.868C135.612 68.22 134.479 68.396 133.247 68.396ZM151.804 68.396C149.824 68.396 148.097 67.934 146.623 67.01C145.171 66.064 144.181 64.799 143.653 63.215L147.283 61.499C147.745 62.467 148.372 63.226 149.164 63.776C149.956 64.326 150.836 64.601 151.804 64.601C152.508 64.601 153.047 64.458 153.421 64.172C153.795 63.886 153.982 63.49 153.982 62.984C153.982 62.72 153.916 62.5 153.784 62.324C153.652 62.126 153.454 61.95 153.19 61.796C152.926 61.642 152.596 61.51 152.2 61.4L149.131 60.542C147.657 60.124 146.524 59.453 145.732 58.529C144.94 57.583 144.544 56.472 144.544 55.196C144.544 54.074 144.83 53.095 145.402 52.259C145.974 51.423 146.777 50.774 147.811 50.312C148.845 49.828 150.033 49.586 151.375 49.586C153.135 49.586 154.675 50.004 155.995 50.84C157.337 51.654 158.283 52.809 158.833 54.305L155.17 56.021C154.906 55.273 154.422 54.679 153.718 54.239C153.036 53.777 152.255 53.546 151.375 53.546C150.737 53.546 150.231 53.678 149.857 53.942C149.505 54.206 149.329 54.569 149.329 55.031C149.329 55.273 149.395 55.493 149.527 55.691C149.659 55.889 149.868 56.065 150.154 56.219C150.462 56.373 150.836 56.516 151.276 56.648L154.147 57.506C155.643 57.946 156.787 58.617 157.579 59.519C158.371 60.399 158.767 61.488 158.767 62.786C158.767 63.908 158.47 64.887 157.876 65.723C157.304 66.559 156.501 67.219 155.467 67.703C154.433 68.165 153.212 68.396 151.804 68.396ZM170.404 68.198C168.226 68.198 166.532 67.615 165.322 66.449C164.134 65.261 163.54 63.611 163.54 61.499V54.272H160.504V49.982H160.669C161.593 49.982 162.297 49.751 162.781 49.289C163.287 48.827 163.54 48.134 163.54 47.21V45.89H168.49V49.982H172.714V54.272H168.49V61.169C168.49 61.785 168.6 62.302 168.82 62.72C169.04 63.116 169.381 63.413 169.843 63.611C170.305 63.809 170.877 63.908 171.559 63.908C171.713 63.908 171.889 63.897 172.087 63.875C172.285 63.853 172.494 63.831 172.714 63.809V68C172.384 68.044 172.01 68.088 171.592 68.132C171.174 68.176 170.778 68.198 170.404 68.198ZM190.025 68.396C188.265 68.396 186.692 67.978 185.306 67.142C183.92 66.306 182.82 65.173 182.006 63.743C181.214 62.313 180.818 60.729 180.818 58.991C180.818 57.231 181.225 55.647 182.039 54.239C182.853 52.809 183.953 51.676 185.339 50.84C186.725 50.004 188.276 49.586 189.992 49.586C191.312 49.586 192.478 49.839 193.49 50.345C194.524 50.829 195.338 51.522 195.932 52.424L195.173 53.414V43.019H200.123V68H195.503V64.7L195.965 65.723C195.349 66.603 194.513 67.274 193.457 67.736C192.401 68.176 191.257 68.396 190.025 68.396ZM190.619 63.941C191.521 63.941 192.313 63.732 192.995 63.314C193.677 62.896 194.205 62.313 194.579 61.565C194.975 60.817 195.173 59.959 195.173 58.991C195.173 58.023 194.975 57.165 194.579 56.417C194.205 55.669 193.677 55.086 192.995 54.668C192.313 54.25 191.521 54.041 190.619 54.041C189.717 54.041 188.903 54.261 188.177 54.701C187.473 55.119 186.923 55.702 186.527 56.45C186.131 57.176 185.933 58.023 185.933 58.991C185.933 59.959 186.131 60.817 186.527 61.565C186.923 62.313 187.473 62.896 188.177 63.314C188.903 63.732 189.717 63.941 190.619 63.941ZM210.217 68.396C208.765 68.396 207.522 68.088 206.488 67.472C205.476 66.834 204.706 65.954 204.178 64.832C203.65 63.71 203.386 62.401 203.386 60.905V49.982H208.336V60.509C208.336 61.191 208.468 61.796 208.732 62.324C209.018 62.83 209.414 63.226 209.92 63.512C210.426 63.798 210.998 63.941 211.636 63.941C212.296 63.941 212.868 63.798 213.352 63.512C213.858 63.226 214.243 62.83 214.507 62.324C214.793 61.796 214.936 61.191 214.936 60.509V49.982H219.886V68H215.266V64.436L215.53 65.228C215.112 66.306 214.43 67.109 213.484 67.637C212.56 68.143 211.471 68.396 210.217 68.396ZM238.112 68.396C236.198 68.396 234.537 67.978 233.129 67.142C231.721 66.284 230.632 65.14 229.862 63.71C229.092 62.28 228.707 60.696 228.707 58.958C228.707 57.154 229.103 55.548 229.895 54.14C230.709 52.732 231.798 51.621 233.162 50.807C234.526 49.993 236.066 49.586 237.782 49.586C239.212 49.586 240.477 49.817 241.577 50.279C242.677 50.719 243.601 51.346 244.349 52.16C245.119 52.974 245.702 53.92 246.098 54.998C246.494 56.054 246.692 57.209 246.692 58.463C246.692 58.815 246.67 59.167 246.626 59.519C246.604 59.849 246.549 60.135 246.461 60.377H232.964V56.747H243.656L241.313 58.463C241.533 57.517 241.522 56.681 241.28 55.955C241.038 55.207 240.609 54.624 239.993 54.206C239.399 53.766 238.662 53.546 237.782 53.546C236.924 53.546 236.187 53.755 235.571 54.173C234.955 54.591 234.493 55.207 234.185 56.021C233.877 56.835 233.756 57.825 233.822 58.991C233.734 60.003 233.855 60.894 234.185 61.664C234.515 62.434 235.021 63.039 235.703 63.479C236.385 63.897 237.21 64.106 238.178 64.106C239.058 64.106 239.806 63.93 240.422 63.578C241.06 63.226 241.555 62.742 241.907 62.126L245.867 64.007C245.515 64.887 244.954 65.657 244.184 66.317C243.436 66.977 242.545 67.494 241.511 67.868C240.477 68.22 239.344 68.396 238.112 68.396ZM249.607 68V43.019H254.557V53.546L253.963 52.754C254.381 51.676 255.052 50.884 255.976 50.378C256.922 49.85 258.022 49.586 259.276 49.586C260.64 49.586 261.828 49.872 262.84 50.444C263.874 51.016 264.677 51.819 265.249 52.853C265.821 53.865 266.107 55.053 266.107 56.417V68H261.157V57.473C261.157 56.769 261.014 56.164 260.728 55.658C260.464 55.152 260.079 54.756 259.573 54.47C259.089 54.184 258.517 54.041 257.857 54.041C257.219 54.041 256.647 54.184 256.141 54.47C255.635 54.756 255.239 55.152 254.953 55.658C254.689 56.164 254.557 56.769 254.557 57.473V68H249.607ZM278.041 68.396C276.127 68.396 274.466 67.978 273.058 67.142C271.65 66.284 270.561 65.14 269.791 63.71C269.021 62.28 268.636 60.696 268.636 58.958C268.636 57.154 269.032 55.548 269.824 54.14C270.638 52.732 271.727 51.621 273.091 50.807C274.455 49.993 275.995 49.586 277.711 49.586C279.141 49.586 280.406 49.817 281.506 50.279C282.606 50.719 283.53 51.346 284.278 52.16C285.048 52.974 285.631 53.92 286.027 54.998C286.423 56.054 286.621 57.209 286.621 58.463C286.621 58.815 286.599 59.167 286.555 59.519C286.533 59.849 286.478 60.135 286.39 60.377H272.893V56.747H283.585L281.242 58.463C281.462 57.517 281.451 56.681 281.209 55.955C280.967 55.207 280.538 54.624 279.922 54.206C279.328 53.766 278.591 53.546 277.711 53.546C276.853 53.546 276.116 53.755 275.5 54.173C274.884 54.591 274.422 55.207 274.114 56.021C273.806 56.835 273.685 57.825 273.751 58.991C273.663 60.003 273.784 60.894 274.114 61.664C274.444 62.434 274.95 63.039 275.632 63.479C276.314 63.897 277.139 64.106 278.107 64.106C278.987 64.106 279.735 63.93 280.351 63.578C280.989 63.226 281.484 62.742 281.836 62.126L285.796 64.007C285.444 64.887 284.883 65.657 284.113 66.317C283.365 66.977 282.474 67.494 281.44 67.868C280.406 68.22 279.273 68.396 278.041 68.396ZM289.536 68V49.982H294.156V54.305L293.826 53.678C294.222 52.16 294.871 51.137 295.773 50.609C296.697 50.059 297.786 49.784 299.04 49.784H300.096V54.074H298.545C297.335 54.074 296.356 54.448 295.608 55.196C294.86 55.922 294.486 56.956 294.486 58.298V68H289.536ZM307.875 60.41V59.651C307.875 58.683 308.007 57.836 308.271 57.11C308.557 56.362 308.92 55.702 309.36 55.13C309.8 54.558 310.251 54.041 310.713 53.579C311.351 52.941 311.923 52.369 312.429 51.863C312.935 51.335 313.188 50.73 313.188 50.048C313.188 49.586 313.078 49.179 312.858 48.827C312.638 48.453 312.308 48.167 311.868 47.969C311.45 47.749 310.922 47.639 310.284 47.639C309.47 47.639 308.755 47.892 308.139 48.398C307.545 48.882 307.182 49.542 307.05 50.378L302.463 49.223C302.661 47.991 303.112 46.913 303.816 45.989C304.542 45.065 305.466 44.339 306.588 43.811C307.732 43.283 309.008 43.019 310.416 43.019C312.132 43.019 313.573 43.36 314.739 44.042C315.927 44.702 316.818 45.56 317.412 46.616C318.006 47.65 318.303 48.75 318.303 49.916C318.303 50.752 318.138 51.5 317.808 52.16C317.5 52.798 317.104 53.392 316.62 53.942C316.136 54.47 315.63 54.987 315.102 55.493C314.42 56.131 313.815 56.802 313.287 57.506C312.759 58.21 312.495 59.035 312.495 59.981V60.41H307.875ZM307.743 68V63.05H312.693V68H307.743Z" fill="black"/>
            <rect x="73" y="175" width="213" height="125" fill="#5DDB6A"/>
            <ellipse cx="179.5" cy="175.5" rx="106.5" ry="25.5" fill="#50BD5B"/>
            <path d="M163.516 260L174.856 226.475H184.126L195.466 260H187.861L185.611 253.16H173.326L171.076 260H163.516ZM175.261 247.085H183.676L178.546 231.245H180.436L175.261 247.085Z" fill="black" fill-opacity="0.2"/>
            <rect x="284" y="119" width="213" height="189" fill="#BD5050"/>
            <ellipse cx="390.5" cy="119.5" rx="106.5" ry="25.5" fill="#A74646"/>
            <path d="M377.935 234V200.475H392.11C394.42 200.475 396.4 200.865 398.05 201.645C399.7 202.425 400.96 203.55 401.83 205.02C402.7 206.46 403.135 208.215 403.135 210.285C403.135 211.755 402.73 213.165 401.92 214.515C401.11 215.835 399.775 216.945 397.915 217.845V214.425C399.685 215.115 401.05 215.94 402.01 216.9C402.97 217.86 403.63 218.91 403.99 220.05C404.35 221.16 404.53 222.33 404.53 223.56C404.53 226.86 403.435 229.425 401.245 231.255C399.055 233.085 396.01 234 392.11 234H377.935ZM384.91 227.925H392.92C394.33 227.925 395.455 227.52 396.295 226.71C397.135 225.9 397.555 224.85 397.555 223.56C397.555 222.24 397.135 221.175 396.295 220.365C395.455 219.555 394.33 219.15 392.92 219.15H384.91V227.925ZM384.91 213.075H392.605C393.685 213.075 394.54 212.775 395.17 212.175C395.83 211.545 396.16 210.72 396.16 209.7C396.16 208.68 395.83 207.87 395.17 207.27C394.54 206.64 393.685 206.325 392.605 206.325H384.91V213.075Z" fill="black" fill-opacity="0.2"/>
        </g>
    </g>
    <defs>
        <linearGradient id="paint0_linear_26_31" x1="28" y1="17.5" x2="449.5" y2="281" gradientUnits="userSpaceOnUse">
            <stop stop-color="white"/>
            <stop offset="1" stop-color="white"/>
        </linearGradient>
        <clipPath id="clip0_26_31">
            <rect width="569" height="286" fill="white"/>
        </clipPath>
    </defs>
</svg>
