<svg width="203" height="89" viewBox="0 0 203 89" fill="none" xmlns="http://www.w3.org/2000/svg">
    <g clip-path="url(#clip0_1_3)">
        <path d="M24.384 43.492C22.1973 43.492 20.161 43.0957 18.275 42.303C16.389 41.5103 14.7353 40.4033 13.314 38.982C11.8927 37.5607 10.7857 35.8933 9.993 33.98C9.20033 32.0667 8.804 29.9757 8.804 27.707C8.804 25.4383 9.18667 23.3473 9.952 21.434C10.7173 19.4933 11.797 17.826 13.191 16.432C14.585 15.0107 16.2113 13.9173 18.07 13.152C19.956 12.3593 22.006 11.963 24.22 11.963C26.434 11.963 28.4157 12.332 30.165 13.07C31.9417 13.808 33.445 14.792 34.675 16.022C35.905 17.252 36.7797 18.6187 37.299 20.122L31.682 22.828C31.1627 21.352 30.247 20.1357 28.935 19.179C27.6503 18.195 26.0787 17.703 24.22 17.703C22.416 17.703 20.8307 18.1267 19.464 18.974C18.0973 19.8213 17.0313 20.9967 16.266 22.5C15.528 23.976 15.159 25.7117 15.159 27.707C15.159 29.7023 15.5553 31.4517 16.348 32.955C17.1407 34.4583 18.2203 35.6337 19.587 36.481C20.981 37.3283 22.58 37.752 24.384 37.752C25.778 37.752 27.0763 37.4923 28.279 36.973C29.509 36.4263 30.493 35.6473 31.231 34.636C31.9963 33.6247 32.379 32.4083 32.379 30.987V28.445L35.29 30.905H24.22V25.575H38.734V28.814C38.734 31.3013 38.324 33.4743 37.504 35.333C36.684 37.1643 35.577 38.695 34.183 39.925C32.8163 41.1277 31.272 42.0297 29.55 42.631C27.8553 43.205 26.1333 43.492 24.384 43.492ZM52.9901 43.492C50.6121 43.492 48.5485 42.9727 46.7991 41.934C45.0498 40.868 43.6968 39.4467 42.7401 37.67C41.7835 35.8933 41.3051 33.9253 41.3051 31.766C41.3051 29.5247 41.7971 27.5293 42.7811 25.78C43.7925 24.0307 45.1455 22.6503 46.8401 21.639C48.5348 20.6277 50.4481 20.122 52.5801 20.122C54.3568 20.122 55.9285 20.409 57.2951 20.983C58.6618 21.5297 59.8098 22.3087 60.7391 23.32C61.6958 24.3313 62.4201 25.5067 62.9121 26.846C63.4041 28.158 63.6501 29.593 63.6501 31.151C63.6501 31.5883 63.6228 32.0257 63.5681 32.463C63.5408 32.873 63.4725 33.2283 63.3632 33.529H46.5941V29.019H59.8781L56.9671 31.151C57.2405 29.9757 57.2268 28.937 56.9261 28.035C56.6255 27.1057 56.0925 26.3813 55.3271 25.862C54.5891 25.3153 53.6735 25.042 52.5801 25.042C51.5141 25.042 50.5985 25.3017 49.8331 25.821C49.0678 26.3403 48.4938 27.1057 48.1111 28.117C47.7285 29.1283 47.5781 30.3583 47.6601 31.807C47.5508 33.0643 47.7011 34.1713 48.1111 35.128C48.5211 36.0847 49.1498 36.8363 49.9971 37.383C50.8445 37.9023 51.8695 38.162 53.0721 38.162C54.1655 38.162 55.0948 37.9433 55.8601 37.506C56.6528 37.0687 57.2678 36.4673 57.7051 35.702L62.6251 38.039C62.1878 39.1323 61.4908 40.089 60.5341 40.909C59.6048 41.729 58.4978 42.3713 57.2131 42.836C55.9285 43.2733 54.5208 43.492 52.9901 43.492ZM78.0546 43.246C75.3486 43.246 73.2439 42.5217 71.7406 41.073C70.2646 39.597 69.5266 37.547 69.5266 34.923V25.944H65.7546V20.614H65.9596C67.1076 20.614 67.9823 20.327 68.5836 19.753C69.2123 19.179 69.5266 18.318 69.5266 17.17V15.53H75.6766V20.614H80.9246V25.944H75.6766V34.513C75.6766 35.2783 75.8133 35.9207 76.0866 36.44C76.3599 36.932 76.7836 37.301 77.3576 37.547C77.9316 37.793 78.6423 37.916 79.4896 37.916C79.6809 37.916 79.8996 37.9023 80.1456 37.875C80.3916 37.8477 80.6513 37.8203 80.9246 37.793V43C80.5146 43.0547 80.0499 43.1093 79.5306 43.164C79.0113 43.2187 78.5193 43.246 78.0546 43.246Z" fill="#5B6CFF"/>
        <path d="M36.446 65L28.451 34.455H35.339L41.366 60.039H39.521L45.876 34.455H52.436L58.791 60.039H56.946L62.973 34.455H69.861L61.866 65H54.486L48.09 40.4H50.222L43.826 65H36.446ZM77.8637 65.492C76.251 65.492 74.857 65.2323 73.6817 64.713C72.5064 64.1937 71.6044 63.4557 70.9757 62.499C70.347 61.515 70.0327 60.3533 70.0327 59.014C70.0327 57.7567 70.3197 56.6497 70.8937 55.693C71.4677 54.709 72.3424 53.889 73.5177 53.233C74.7204 52.577 76.21 52.1123 77.9867 51.839L84.8337 50.732V55.242L79.0937 56.267C78.219 56.431 77.5494 56.718 77.0847 57.128C76.62 57.5107 76.3877 58.071 76.3877 58.809C76.3877 59.4923 76.6474 60.0253 77.1667 60.408C77.686 60.7907 78.3284 60.982 79.0937 60.982C80.105 60.982 80.9934 60.7633 81.7587 60.326C82.524 59.8887 83.1117 59.301 83.5217 58.563C83.959 57.7977 84.1777 56.964 84.1777 56.062V50.24C84.1777 49.3927 83.836 48.682 83.1527 48.108C82.4967 47.534 81.5947 47.247 80.4467 47.247C79.3534 47.247 78.383 47.5477 77.5357 48.149C76.7157 48.7503 76.1144 49.543 75.7317 50.527L70.8117 48.19C71.249 46.9327 71.946 45.853 72.9027 44.951C73.8594 44.049 75.0074 43.352 76.3467 42.86C77.686 42.368 79.1484 42.122 80.7337 42.122C82.6197 42.122 84.287 42.4637 85.7357 43.147C87.1844 43.8303 88.305 44.787 89.0977 46.017C89.9177 47.2197 90.3277 48.6273 90.3277 50.24V65H84.5877V61.392L85.9817 61.146C85.3257 62.13 84.6014 62.95 83.8087 63.606C83.016 64.2347 82.1277 64.6993 81.1437 65C80.1597 65.328 79.0664 65.492 77.8637 65.492ZM103.612 65.492C101.152 65.492 99.0063 64.918 97.175 63.77C95.371 62.5947 94.141 61.023 93.485 59.055L97.995 56.923C98.569 58.1257 99.348 59.0687 100.332 59.752C101.316 60.4353 102.409 60.777 103.612 60.777C104.487 60.777 105.156 60.5993 105.621 60.244C106.086 59.8887 106.318 59.3967 106.318 58.768C106.318 58.44 106.236 58.1667 106.072 57.948C105.908 57.702 105.662 57.4833 105.334 57.292C105.006 57.1007 104.596 56.9367 104.104 56.8L100.291 55.734C98.4597 55.2147 97.052 54.381 96.068 53.233C95.084 52.0577 94.592 50.6773 94.592 49.092C94.592 47.698 94.9473 46.4817 95.658 45.443C96.3687 44.4043 97.3663 43.598 98.651 43.024C99.9357 42.4227 101.412 42.122 103.079 42.122C105.266 42.122 107.179 42.6413 108.819 43.68C110.486 44.6913 111.662 46.1263 112.345 47.985L107.794 50.117C107.466 49.1877 106.865 48.4497 105.99 47.903C105.143 47.329 104.172 47.042 103.079 47.042C102.286 47.042 101.658 47.206 101.193 47.534C100.756 47.862 100.537 48.313 100.537 48.887C100.537 49.1877 100.619 49.461 100.783 49.707C100.947 49.953 101.207 50.1717 101.562 50.363C101.945 50.5543 102.409 50.732 102.956 50.896L106.523 51.962C108.382 52.5087 109.803 53.3423 110.787 54.463C111.771 55.5563 112.263 56.9093 112.263 58.522C112.263 59.916 111.894 61.1323 111.156 62.171C110.445 63.2097 109.448 64.0297 108.163 64.631C106.878 65.205 105.361 65.492 103.612 65.492ZM126.722 65.246C124.016 65.246 121.911 64.5217 120.408 63.073C118.932 61.597 118.194 59.547 118.194 56.923V47.944H114.422V42.614H114.627C115.775 42.614 116.649 42.327 117.251 41.753C117.879 41.179 118.194 40.318 118.194 39.17V37.53H124.344V42.614H129.592V47.944H124.344V56.513C124.344 57.2783 124.48 57.9207 124.754 58.44C125.027 58.932 125.451 59.301 126.025 59.547C126.599 59.793 127.309 59.916 128.157 59.916C128.348 59.916 128.567 59.9023 128.813 59.875C129.059 59.8477 129.318 59.8203 129.592 59.793V65C129.182 65.0547 128.717 65.1093 128.198 65.164C127.678 65.2187 127.186 65.246 126.722 65.246ZM143.978 65.492C141.6 65.492 139.537 64.9727 137.787 63.934C136.038 62.868 134.685 61.4467 133.728 59.67C132.772 57.8933 132.293 55.9253 132.293 53.766C132.293 51.5247 132.785 49.5293 133.769 47.78C134.781 46.0307 136.134 44.6503 137.828 43.639C139.523 42.6277 141.436 42.122 143.568 42.122C145.345 42.122 146.917 42.409 148.283 42.983C149.65 43.5297 150.798 44.3087 151.727 45.32C152.684 46.3313 153.408 47.5067 153.9 48.846C154.392 50.158 154.638 51.593 154.638 53.151C154.638 53.5883 154.611 54.0257 154.556 54.463C154.529 54.873 154.461 55.2283 154.351 55.529H137.582V51.019H150.866L147.955 53.151C148.229 51.9757 148.215 50.937 147.914 50.035C147.614 49.1057 147.081 48.3813 146.315 47.862C145.577 47.3153 144.662 47.042 143.568 47.042C142.502 47.042 141.587 47.3017 140.821 47.821C140.056 48.3403 139.482 49.1057 139.099 50.117C138.717 51.1283 138.566 52.3583 138.648 53.807C138.539 55.0643 138.689 56.1713 139.099 57.128C139.509 58.0847 140.138 58.8363 140.985 59.383C141.833 59.9023 142.858 60.162 144.06 60.162C145.154 60.162 146.083 59.9433 146.848 59.506C147.641 59.0687 148.256 58.4673 148.693 57.702L153.613 60.039C153.176 61.1323 152.479 62.089 151.522 62.909C150.593 63.729 149.486 64.3713 148.201 64.836C146.917 65.2733 145.509 65.492 143.978 65.492ZM168.797 65.492C166.61 65.492 164.656 64.9727 162.934 63.934C161.212 62.8953 159.845 61.4877 158.834 59.711C157.85 57.9343 157.358 55.9663 157.358 53.807C157.358 51.6203 157.864 49.6523 158.875 47.903C159.886 46.1263 161.253 44.7187 162.975 43.68C164.697 42.6413 166.624 42.122 168.756 42.122C170.396 42.122 171.845 42.4363 173.102 43.065C174.387 43.6663 175.398 44.5273 176.136 45.648L175.193 46.878V33.963H181.343V65H175.603V60.9L176.177 62.171C175.412 63.2643 174.373 64.098 173.061 64.672C171.749 65.2187 170.328 65.492 168.797 65.492ZM169.535 59.957C170.656 59.957 171.64 59.6973 172.487 59.178C173.334 58.6587 173.99 57.9343 174.455 57.005C174.947 56.0757 175.193 55.0097 175.193 53.807C175.193 52.6043 174.947 51.5383 174.455 50.609C173.99 49.6797 173.334 48.9553 172.487 48.436C171.64 47.9167 170.656 47.657 169.535 47.657C168.414 47.657 167.403 47.9303 166.501 48.477C165.626 48.9963 164.943 49.7207 164.451 50.65C163.959 51.552 163.713 52.6043 163.713 53.807C163.713 55.0097 163.959 56.0757 164.451 57.005C164.943 57.9343 165.626 58.6587 166.501 59.178C167.403 59.6973 168.414 59.957 169.535 59.957Z" fill="#FF49A1"/>
    </g>
    <defs>
        <clipPath id="clip0_1_3">
            <rect width="203" height="89" fill="white"/>
        </clipPath>
    </defs>
</svg>
